<svg width="31" height="31" viewBox="0 0 31 31" fill="none" xmlns="http://www.w3.org/2000/svg">
<path d="M22.8481 5.54193H7.84814C6.46743 5.54193 5.34814 6.66122 5.34814 8.04193V23.0419C5.34814 24.4226 6.46743 25.5419 7.84814 25.5419H22.8481C24.2289 25.5419 25.3481 24.4226 25.3481 23.0419V8.04193C25.3481 6.66122 24.2289 5.54193 22.8481 5.54193Z" stroke="#080049" stroke-linecap="round" stroke-linejoin="round"/>
<path d="M11.9457 14.3047V16.7792H13.8016V21.1096H16.2761V16.7792H18.1319L18.7506 14.3047H16.2761V13.0675C16.2761 12.9034 16.3412 12.7461 16.4573 12.63C16.5733 12.514 16.7306 12.4489 16.8947 12.4489H18.7506V9.97437H16.8947C16.0743 9.97437 15.2876 10.3002 14.7075 10.8803C14.1275 11.4604 13.8016 12.2471 13.8016 13.0675V14.3047H11.9457Z" stroke="#2C3E50" stroke-linecap="round" stroke-linejoin="round"/>
</svg>
