<svg width="31" height="31" viewBox="0 0 31 31" fill="none" xmlns="http://www.w3.org/2000/svg">
<path d="M20.6963 5.54199H10.6963C7.93487 5.54199 5.69629 7.78057 5.69629 10.542V20.542C5.69629 23.3034 7.93487 25.542 10.6963 25.542H20.6963C23.4577 25.542 25.6963 23.3034 25.6963 20.542V10.542C25.6963 7.78057 23.4577 5.54199 20.6963 5.54199Z" stroke="#2C3E50" stroke-linecap="round" stroke-linejoin="round"/>
<path d="M15.6963 19.292C17.7674 19.292 19.4463 17.6131 19.4463 15.542C19.4463 13.4709 17.7674 11.792 15.6963 11.792C13.6252 11.792 11.9463 13.4709 11.9463 15.542C11.9463 17.6131 13.6252 19.292 15.6963 19.292Z" stroke="#2C3E50" stroke-linecap="round" stroke-linejoin="round"/>
<path d="M21.3213 9.91699V9.91799" stroke="#2C3E50" stroke-width="2.75" stroke-linecap="round" stroke-linejoin="round"/>
</svg>
