<svg width="31" height="31" viewBox="0 0 31 31" fill="none" xmlns="http://www.w3.org/2000/svg">
<path d="M23.1519 5.4549H8.15186C6.77114 5.4549 5.65186 6.57418 5.65186 7.9549V22.9549C5.65186 24.3356 6.77114 25.4549 8.15186 25.4549H23.1519C24.5326 25.4549 25.6519 24.3356 25.6519 22.9549V7.9549C25.6519 6.57418 24.5326 5.4549 23.1519 5.4549Z" stroke="#080049" stroke-linecap="round" stroke-linejoin="round"/>
<path d="M10.6519 14.205V20.455" stroke="#080049" stroke-linecap="round" stroke-linejoin="round"/>
<path d="M10.6519 10.455V10.4685" stroke="#080049" stroke-linecap="round" stroke-linejoin="round"/>
<path d="M15.6519 20.455V14.205" stroke="#080049" stroke-linecap="round" stroke-linejoin="round"/>
<path d="M20.6519 20.455V16.705C20.6519 16.042 20.3885 15.4061 19.9196 14.9373C19.4508 14.4684 18.8149 14.205 18.1519 14.205C17.4888 14.205 16.8529 14.4684 16.3841 14.9373C15.9152 15.4061 15.6519 16.042 15.6519 16.705" stroke="#080049" stroke-linecap="round" stroke-linejoin="round"/>
</svg>
