<svg width="31" height="31" viewBox="0 0 31 31" fill="none" xmlns="http://www.w3.org/2000/svg">
<path d="M27.8037 5.55451C26.5537 6.16701 25.3287 6.41576 24.0537 6.79201C22.6525 5.21076 20.575 5.12326 18.5787 5.87076C16.5825 6.61826 15.275 8.44576 15.3037 10.542V11.792C11.2475 11.8958 7.63496 10.0483 5.30371 6.79201C5.30371 6.79201 0.0762105 16.0833 10.3037 20.542C7.96371 22.1008 5.62996 23.152 2.80371 23.042C6.93871 25.2958 11.445 26.0708 15.3462 24.9383C19.8212 23.6383 23.4987 20.2845 24.91 15.2608C25.331 13.7328 25.54 12.1543 25.5312 10.5695C25.5287 10.2583 27.4187 7.10451 27.8037 5.55326V5.55451Z" stroke="#080049" stroke-linecap="round" stroke-linejoin="round"/>
</svg>
